<?xml version="1.0" standalone="no"?>
<!DOCTYPE svg PUBLIC "-//W3C//DTD SVG 20010904//EN"
 "http://www.w3.org/TR/2001/REC-SVG-20010904/DTD/svg10.dtd">
<svg version="1.0" xmlns="http://www.w3.org/2000/svg"
 width="277.000000pt" height="219.000000pt" viewBox="0 0 277.000000 219.000000"
 preserveAspectRatio="xMidYMid meet">
<metadata>
Created by potrace 1.16, written by Peter Selinger 2001-2019
</metadata>
<g transform="translate(0.000000,219.000000) scale(0.100000,-0.100000)"
fill="#000000" stroke="none">
<path d="M878 1919 c-32 -22 -58 -47 -58 -55 0 -23 219 -384 237 -391 20 -8
47 9 51 30 2 9 -40 88 -92 176 -53 87 -96 163 -96 169 0 36 49 0 251 -184 123
-112 231 -204 240 -204 20 0 39 20 39 41 0 21 -478 459 -500 458 -8 0 -41 -18
-72 -40z"/>
<path d="M335 1647 c-96 -38 -105 -44 -105 -64 0 -8 52 -87 116 -174 l116
-160 -30 -27 c-16 -15 -33 -38 -37 -51 -12 -38 3 -88 35 -114 28 -24 29 -24
349 -32 l321 -7 -12 -22 c-6 -11 -71 -130 -144 -263 -74 -133 -134 -249 -134
-257 0 -18 118 -116 140 -116 8 0 164 149 345 330 l330 330 380 0 c362 0 382
1 413 20 59 36 68 107 23 185 -40 69 -119 140 -199 178 l-67 32 -725 3 -725 3
-140 119 c-77 66 -147 120 -155 119 -8 0 -51 -15 -95 -32z m226 -172 l134
-114 735 -3 735 -3 55 -28 c66 -34 103 -67 141 -126 32 -50 37 -86 13 -95 -9
-3 -162 -6 -341 -6 -315 0 -326 1 -310 18 28 31 15 72 -23 72 -8 0 -179 -164
-380 -365 -201 -201 -370 -365 -376 -365 -6 0 -18 8 -26 18 -14 15 0 45 163
337 98 176 178 327 178 336 1 8 -4 20 -11 27 -23 23 -48 13 -76 -33 l-27 -45
-150 1 c-82 1 -233 4 -335 8 l-185 6 0 25 c0 19 6 26 25 28 34 5 60 30 60 59
0 14 -44 84 -110 174 -60 84 -110 155 -110 159 0 7 52 27 76 29 6 1 71 -51
145 -114z"/>
</g>
</svg>
