<svg version="1.0" xmlns="http://www.w3.org/2000/svg"
 width="255.000000pt" height="262.000000pt" viewBox="0 0 255.000000 262.000000"
 preserveAspectRatio="xMidYMid meet">
<metadata>
Created by potrace 1.16, written by Peter Selinger 2001-2019
</metadata>
<g transform="translate(0.000000,262.000000) scale(0.100000,-0.100000)"
fill="#000000" stroke="none">
<path d="M705 2580 c-198 -44 -352 -180 -417 -368 -32 -95 -32 -249 0 -344
108 -314 461 -465 757 -323 39 19 91 52 117 74 l46 41 27 -40 c34 -50 109
-119 165 -155 87 -55 141 -67 320 -72 l165 -5 300 -299 c166 -164 308 -299
317 -299 50 0 48 -16 48 399 l0 386 -358 358 -358 357 -266 0 -266 0 -31 49
c-63 98 -170 181 -287 222 -67 23 -215 33 -279 19z m212 -104 c87 -23 145 -57
209 -120 64 -65 109 -144 123 -221 l8 -45 -83 0 c-102 0 -119 -12 -111 -77 7
-62 46 -133 95 -169 l41 -32 -28 -39 c-104 -144 -298 -214 -468 -169 -87 23
-145 57 -209 120 -179 180 -179 452 0 632 115 115 274 160 423 120z m1205
-623 l338 -338 0 -275 0 -275 -214 214 c-185 185 -212 216 -200 228 18 19 18
48 -2 67 -13 14 -47 16 -214 16 -110 0 -223 5 -252 11 -102 22 -186 79 -263
179 -45 58 -45 60 -29 85 14 21 24 25 63 25 43 0 48 -3 66 -36 42 -79 157
-150 258 -161 42 -4 57 -2 70 12 39 38 16 75 -54 86 -101 16 -165 65 -221 168
l-17 31 -86 0 c-100 0 -155 21 -180 70 l-16 30 280 0 c241 0 282 2 295 16 9 8
16 24 16 34 0 45 -20 50 -216 50 l-184 0 -5 25 c-3 14 -7 36 -10 50 l-5 25
222 0 223 0 337 -337z"/>
<path d="M776 2374 c-9 -8 -16 -32 -16 -52 0 -31 -6 -41 -34 -59 -114 -74 -68
-247 74 -271 36 -6 46 -13 54 -34 8 -22 6 -32 -9 -48 -25 -27 -46 -25 -90 10
-43 34 -57 37 -79 14 -34 -33 -6 -89 62 -123 17 -9 22 -20 22 -51 0 -42 20
-70 50 -70 30 0 50 28 50 70 0 33 5 42 31 57 37 22 69 80 69 125 0 70 -68 148
-129 148 -57 0 -90 50 -55 84 21 21 54 20 84 -4 32 -25 52 -25 75 0 26 29 12
65 -35 92 -35 20 -40 27 -40 60 0 40 -21 68 -50 68 -10 0 -26 -7 -34 -16z"/>
<path d="M746 1344 c-13 -12 -16 -39 -16 -125 0 -108 0 -110 -21 -99 -44 24
-89 -12 -74 -59 9 -30 121 -131 145 -131 24 0 136 101 145 131 15 47 -30 83
-74 59 -21 -11 -21 -9 -21 99 0 116 -9 141 -50 141 -10 0 -26 -7 -34 -16z"/>
<path d="M583 815 c-88 -27 -176 -96 -205 -161 -11 -24 -12 -24 -179 -24 -139
0 -170 -3 -183 -16 -24 -23 -24 -545 0 -568 13 -14 51 -16 263 -16 264 0 271
1 271 50 0 48 -9 50 -237 50 l-213 0 0 200 0 200 115 0 115 0 0 -34 c0 -38 21
-66 50 -66 30 0 47 25 53 80 7 62 45 130 90 164 64 49 104 56 309 56 l189 0
-16 -30 c-28 -54 -77 -70 -219 -70 -100 0 -128 -3 -140 -16 -36 -35 -5 -146
59 -209 69 -70 98 -75 404 -75 l266 0 135 135 c146 146 188 173 255 161 19 -4
35 -11 35 -16 0 -5 -86 -115 -192 -245 l-192 -235 -241 0 c-258 0 -265 -1
-265 -50 0 -49 6 -50 285 -50 143 0 265 4 271 8 29 19 464 566 464 583 0 24
-38 61 -85 84 -59 27 -123 30 -191 6 -59 -20 -63 -20 -95 -3 -50 25 -162 23
-214 -5 -22 -12 -96 -78 -165 -147 l-125 -126 -103 0 c-118 0 -170 19 -197 70
l-16 30 89 0 c112 0 172 20 227 75 64 63 95 174 59 209 -13 14 -50 16 -252 15
-166 0 -250 -4 -279 -14z m922 -191 c13 -5 -3 -27 -76 -100 l-94 -94 -70 0
-70 0 85 86 c47 47 99 92 115 100 32 14 83 18 110 8z"/>
</g>
</svg>
