<svg version="1.0" xmlns="http://www.w3.org/2000/svg"
 width="275.000000pt" height="227.000000pt" viewBox="0 0 275.000000 227.000000"
 preserveAspectRatio="xMidYMid meet">
<g transform="translate(0.000000,227.000000) scale(0.100000,-0.100000)"
fill="#000000" stroke="none">
<path d="M1407 2246 c-57 -21 -103 -61 -128 -113 -24 -47 -24 -52 -24 -363 0
-311 0 -316 24 -363 25 -52 71 -92 128 -113 52 -18 985 -20 1047 -2 54 16 128
90 144 144 17 57 17 611 0 668 -16 54 -90 128 -144 144 -62 18 -995 16 -1047
-2z m1028 -161 c20 -19 25 -34 25 -75 l0 -50 -525 0 -525 0 0 54 c0 47 4 57
26 75 26 21 36 21 501 21 l474 0 24 -25z m25 -440 c0 -163 0 -166 -25 -190
l-24 -25 -474 0 c-465 0 -475 0 -501 21 l-26 20 0 170 0 169 525 0 525 0 0
-165z"/>
<path d="M705 2096 c-120 -29 -222 -115 -278 -234 -31 -64 -32 -74 -35 -209
-2 -79 -7 -143 -11 -143 -4 0 -22 16 -41 35 -41 43 -80 46 -115 10 -46 -45
-36 -67 86 -191 61 -62 122 -115 135 -118 36 -9 59 6 162 108 128 125 143 156
97 201 -35 36 -73 32 -123 -11 l-42 -36 0 114 c0 173 36 250 144 305 45 24 66
27 179 32 120 6 130 8 148 30 26 32 24 67 -6 96 -23 24 -30 25 -137 24 -62 0
-135 -6 -163 -13z"/>
<path d="M2155 1001 c-16 -10 -72 -61 -122 -112 -107 -109 -121 -141 -80 -183
37 -37 74 -34 125 10 l42 36 0 -114 c0 -173 -36 -250 -144 -305 -45 -24 -66
-27 -179 -32 -120 -6 -130 -8 -148 -30 -26 -32 -24 -67 6 -96 22 -23 31 -25
129 -25 58 0 129 5 158 11 125 26 233 114 291 237 31 64 32 74 35 210 2 78 7
142 11 142 4 0 22 -16 41 -35 41 -43 80 -46 115 -10 46 45 36 67 -87 191 -63
63 -124 116 -138 119 -16 3 -36 -2 -55 -14z"/>
<path d="M200 967 c-49 -16 -123 -93 -138 -143 -17 -57 -17 -611 0 -668 16
-54 90 -128 144 -144 62 -18 995 -16 1047 2 57 21 103 61 128 113 24 47 24 52
24 363 0 311 0 316 -24 363 -25 52 -71 92 -128 113 -50 17 -998 18 -1053 1z
m1024 -158 c22 -18 26 -28 26 -75 l0 -54 -525 0 -525 0 0 50 c0 41 5 56 25 75
l24 25 474 0 c465 0 475 0 501 -21z m26 -448 l0 -170 -26 -20 c-26 -21 -36
-21 -501 -21 l-474 0 -24 25 c-25 24 -25 27 -25 190 l0 165 525 0 525 0 0
-169z"/>
</g>
</svg>
