<?xml version="1.0" standalone="no"?>
<!DOCTYPE svg PUBLIC "-//W3C//DTD SVG 20010904//EN"
 "http://www.w3.org/TR/2001/REC-SVG-20010904/DTD/svg10.dtd">
<svg version="1.0" xmlns="http://www.w3.org/2000/svg"
 width="348pt" height="317pt" viewBox="0 0 348.000000 317.000000"
 preserveAspectRatio="xMidYMid meet">
<g transform="translate(0.000000,317.000000) scale(0.100000,-0.100000)"
fill="#a8a398" stroke="none">
<path d="M1535 3068 c-235 -26 -475 -113 -670 -243 -560 -373 -807 -1052 -620
-1700 200 -690 874 -1150 1590 -1085 671 60 1221 549 1362 1210 26 122 26 488
0 610 -165 775 -881 1296 -1662 1208z m380 -72 c166 -25 300 -68 448 -143 326
-166 581 -452 707 -793 121 -328 121 -682 0 -1010 -67 -181 -175 -356 -302
-488 -60 -61 -61 -62 -73 -40 -6 13 -16 42 -22 65 -9 34 -8 45 3 54 10 8 14
34 14 82 0 59 -4 75 -22 94 -19 21 -31 23 -107 23 l-86 0 0 -185 0 -185 43 0
43 0 -7 70 -7 70 26 0 c21 0 28 -7 35 -33 5 -17 7 -49 4 -69 -4 -35 -3 -37 29
-40 34 -3 33 -4 -66 -78 -396 -297 -904 -371 -1375 -200 -197 72 -373 185
-526 339 -206 208 -336 452 -401 751 -26 120 -26 430 0 550 124 575 522 993
1087 1141 148 38 395 49 555 25z"/>
<path d="M1200 2512 c0 -127 0 -129 25 -142 l25 -13 0 -551 0 -551 102 -102
103 -103 255 0 255 0 103 103 102 102 0 551 0 551 25 13 c25 13 25 15 25 142
l0 128 -190 0 -190 0 0 -126 c0 -123 1 -127 25 -146 l25 -19 0 -482 0 -481
-27 -28 c-27 -28 -27 -28 -158 -28 -194 0 -175 -59 -175 532 l0 487 25 19 c24
19 25 23 25 146 l0 126 -190 0 -190 0 0 -128z"/>
<path d="M718 678 c5 -202 9 -208 112 -208 103 0 107 6 112 208 l5 162 -42 0
-41 0 0 -152 1 -153 -35 0 -35 0 1 153 0 152 -41 0 -42 0 5 -162z"/>
<path d="M995 655 l0 -185 42 0 43 0 -7 90 c-3 50 -4 90 -1 90 3 0 21 -40 39
-90 l33 -90 38 0 38 0 0 139 c0 76 3 159 6 185 l7 46 -47 0 -46 0 7 -90 c3
-49 4 -90 1 -90 -3 0 -21 40 -39 90 l-34 90 -40 0 -40 0 0 -185z"/>
<path d="M1275 655 l0 -185 40 0 40 0 0 185 0 185 -40 0 -40 0 0 -185z"/>
<path d="M1422 817 c-20 -22 -22 -33 -22 -163 0 -134 1 -142 23 -162 19 -18
35 -22 89 -22 60 0 69 3 87 26 12 15 21 41 21 60 0 32 -2 34 -34 34 -30 0 -35
-3 -38 -27 -3 -25 -7 -28 -38 -28 l-35 0 0 120 0 120 35 0 c31 0 35 -3 38 -28
3 -25 7 -28 35 -25 45 4 50 48 11 89 -25 26 -35 29 -89 29 -51 0 -65 -4 -83
-23z"/>
<path d="M1682 817 c-20 -22 -22 -33 -22 -163 0 -134 1 -142 23 -162 19 -18
35 -22 88 -22 56 0 69 4 87 23 20 22 22 33 22 157 0 132 0 134 -27 162 -24 25
-34 28 -88 28 -51 0 -65 -4 -83 -23z m123 -162 l0 -120 -28 -3 c-50 -6 -57 10
-57 122 0 113 7 129 55 124 l30 -3 0 -120z"/>
<path d="M1925 655 l0 -185 42 0 43 0 -5 93 -6 92 17 -37 c24 -55 58 -53 85 5
l19 42 -5 -97 -4 -98 44 0 c43 0 45 1 45 29 0 17 -4 33 -10 36 -6 4 -10 55
-10 120 0 65 4 116 10 120 6 3 10 19 10 36 0 28 -2 29 -44 29 l-45 0 -22 -60
c-12 -33 -25 -63 -29 -65 -4 -2 -18 24 -31 58 -24 60 -26 62 -64 65 l-40 3 0
-186z"/>
<path d="M2245 655 l0 -185 93 0 92 0 0 41 c0 41 0 41 -32 35 -79 -16 -83 -15
-86 32 l-3 42 45 0 c46 0 46 0 46 35 0 35 0 35 -45 35 l-45 0 0 40 c0 45 20
61 51 42 10 -7 30 -12 44 -12 23 0 25 4 25 40 l0 40 -92 0 -93 0 0 -185z"/>
</g>
</svg>
